<svg width="50" height="50" viewBox="0 0 50 50" fill="none" xmlns="http://www.w3.org/2000/svg">
<g id="success 1" clip-path="url(#clip0_286_44)">
<path id="Vector" d="M24.6 7.08685C23.7513 7.08685 23.0625 6.39805 23.0625 5.54935V1.5375C23.0625 0.6888 23.7513 0 24.6 0C25.4487 0 26.1375 0.6888 26.1375 1.5375V5.54935C26.1375 6.39805 25.4487 7.08685 24.6 7.08685Z" fill="white"/>
<path id="Vector_2" d="M38.0707 12.6676C37.6771 12.6676 37.2835 12.518 36.9842 12.2166C36.3835 11.616 36.3835 10.6422 36.9842 10.0416L39.8214 7.20439C40.422 6.60374 41.3958 6.60374 41.9964 7.20439C42.5971 7.80504 42.5971 8.77879 41.9964 9.37944L39.1592 12.2166C38.8579 12.5159 38.4643 12.6676 38.0707 12.6676Z" fill="white"/>
<path id="Vector_3" d="M47.6626 26.1375H43.6508C42.8021 26.1375 42.1133 25.4487 42.1133 24.6C42.1133 23.7513 42.8021 23.0625 43.6508 23.0625H47.6626C48.5113 23.0625 49.2001 23.7513 49.2001 24.6C49.2001 25.4487 48.5113 26.1375 47.6626 26.1375Z" fill="white"/>
<path id="Vector_4" d="M40.9079 42.445C40.5143 42.445 40.1207 42.2953 39.8214 41.994L36.9842 39.1568C36.3835 38.5561 36.3835 37.5824 36.9842 36.9817C37.5848 36.3811 38.5586 36.3811 39.1592 36.9817L41.9964 39.8189C42.5971 40.4196 42.5971 41.3933 41.9964 41.994C41.6951 42.2953 41.3015 42.445 40.9079 42.445Z" fill="white"/>
<path id="Vector_5" d="M8.29236 42.445C7.89876 42.445 7.50516 42.2953 7.20586 41.994C6.60521 41.3933 6.60521 40.4196 7.20586 39.8189L10.0431 36.9817C10.6437 36.3811 11.6175 36.3811 12.2181 36.9817C12.8187 37.5824 12.8187 38.5561 12.2181 39.1568L9.3809 41.994C9.07956 42.2953 8.68596 42.445 8.29236 42.445Z" fill="white"/>
<path id="Vector_6" d="M5.54935 26.1375H1.5375C0.6888 26.1375 0 25.4487 0 24.6C0 23.7513 0.6888 23.0625 1.5375 23.0625H5.54935C6.39805 23.0625 7.08685 23.7513 7.08685 24.6C7.08685 25.4487 6.39805 26.1375 5.54935 26.1375Z" fill="white"/>
<path id="Vector_7" d="M11.1296 12.6676C10.736 12.6676 10.3424 12.518 10.0431 12.2166L7.20586 9.37944C6.60521 8.77879 6.60521 7.80504 7.20586 7.20439C7.80651 6.60374 8.78026 6.60374 9.3809 7.20439L12.2181 10.0416C12.8187 10.6422 12.8187 11.616 12.2181 12.2166C11.9147 12.5159 11.5232 12.6676 11.1296 12.6676Z" fill="white"/>
<path id="Vector_8" d="M30.7502 43.0508V45.6133C30.7502 47.5813 29.1307 49.2008 27.1627 49.2008H22.0377C20.3157 49.2008 18.4502 47.8888 18.4502 45.0188V43.0508H30.7502Z" fill="white"/>
<path id="Vector_9" d="M33.6407 13.4471C30.2787 10.7206 25.8507 9.65464 21.5252 10.5771C16.0927 11.7046 11.6852 16.1326 10.5577 21.5651C9.40969 27.1411 11.5007 32.6761 15.9697 36.0586C17.1792 36.9606 18.0197 38.3546 18.3067 39.9741V39.9946C18.3477 39.9741 18.4092 39.9741 18.4502 39.9741H30.7502C30.7912 39.9741 30.8117 39.9741 30.8527 39.9946V39.9741C31.1397 38.4161 32.0622 36.9811 33.4767 35.8741C36.9412 33.1271 38.9502 29.0271 38.9502 24.5991C38.9502 20.2531 37.0232 16.1941 33.6407 13.4471ZM23.8314 24.0866H25.3689C27.7715 24.0866 29.7252 26.0403 29.7252 28.4429C29.7252 30.581 28.1733 32.3563 26.1377 32.7212V35.3616C26.1377 36.2103 25.4489 36.8991 24.6002 36.8991C23.7515 36.8991 23.0627 36.2103 23.0627 35.3616V32.7991H21.0127C20.164 32.7991 19.4752 32.1103 19.4752 31.2616C19.4752 30.4129 20.164 29.7241 21.0127 29.7241H25.3689C26.0762 29.7241 26.6502 29.1501 26.6502 28.4429C26.6502 27.7356 26.0762 27.1616 25.3689 27.1616H23.8314C21.4288 27.1616 19.4752 25.208 19.4752 22.8054C19.4752 20.6672 21.027 18.8919 23.0627 18.527V15.8866C23.0627 15.0379 23.7515 14.3491 24.6002 14.3491C25.4489 14.3491 26.1377 15.0379 26.1377 15.8866V18.4491H28.1877C29.0364 18.4491 29.7252 19.1379 29.7252 19.9866C29.7252 20.8353 29.0364 21.5241 28.1877 21.5241H23.8314C23.1242 21.5241 22.5502 22.0981 22.5502 22.8054C22.5502 23.5126 23.1242 24.0866 23.8314 24.0866Z" fill="white"/>
<path id="Vector_10" d="M18.3066 39.9746H18.4509C18.4097 39.9746 18.3479 39.9746 18.3066 39.9952V39.9746Z" fill="white"/>
<path id="Vector_11" d="M30.854 39.9746V39.9954C30.8124 39.9746 30.7916 39.9746 30.75 39.9746H30.854Z" fill="white"/>
</g>
<defs>
<clipPath id="clip0_286_44">
<rect width="49.2" height="49.2" fill="white"/>
</clipPath>
</defs>
</svg>
